<svg width="757" height="501" viewBox="0 0 757 501" fill="none" xmlns="http://www.w3.org/2000/svg">
<path d="M398.36 191.01C398.278 190.252 398.007 189.528 397.572 188.902C397.137 188.277 396.552 187.77 395.87 187.43C395.296 187.185 394.679 187.059 394.055 187.058C393.431 187.057 392.813 187.181 392.239 187.424C391.664 187.666 391.144 188.022 390.709 188.47C390.275 188.918 389.935 189.448 389.71 190.03L367.5 236.76L362.5 420.76H370.5L373.5 237.17L397.94 193.91C398.382 193.012 398.529 191.997 398.36 191.01V191.01Z" fill="#563D3D"/>
<path opacity="0.1" d="M756.56 462.32C750.008 468.047 742.953 473.171 735.48 477.63C735.363 477.794 735.233 477.948 735.09 478.09C734.297 478.763 733.354 479.236 732.34 479.47V479.47C707.559 493.281 679.629 500.453 651.26 500.29H101.44C38.44 493.81 0 485.22 0 475.79C0 468.48 23.08 461.67 62.82 455.97C66.94 455.37 71.2367 454.79 75.71 454.23C78.4633 453.883 81.28 453.55 84.16 453.23L89.05 452.66C92.6767 452.247 96.4 451.843 100.22 451.45H100.53L104.53 451.05C107.91 450.7 111.36 450.37 114.88 450.05L117.44 449.82L123.97 449.24C128.21 448.86 132.543 448.497 136.97 448.15C140.643 447.863 144.377 447.577 148.17 447.29C186.63 444.44 230.97 442.29 279.22 440.9L293 440.43L297.64 440.33L307.44 440.11L311.37 440.03L315.5 439.95L318.44 439.9L332.24 439.68L339.33 439.58H340.78C357.547 439.38 374.627 439.277 392.02 439.27C426.4 439.27 459.74 439.68 491.51 440.46C509.75 440.9 527.433 441.46 544.56 442.14H544.72C594.1 444.08 638.3 446.94 674.88 450.49L675.55 450.56C684.94 451.47 693.83 452.44 702.17 453.44C710.02 454.38 717.39 455.37 724.23 456.38C726.6 456.73 728.9 457.09 731.14 457.44L731.71 457.54C741.19 459.07 749.51 460.63 756.56 462.32Z" fill="#FF6531"/>
<path d="M735.48 477.63C735.363 477.794 735.233 477.948 735.09 478.09C734.297 478.763 733.354 479.236 732.34 479.47V479.47C730.318 480.037 728.238 480.373 726.14 480.47H725.51C724.312 480.51 723.113 480.47 721.92 480.35C721.049 480.224 720.17 480.167 719.29 480.18H719.17C717.891 480.36 716.635 480.671 715.42 481.11C712.714 481.852 709.925 482.248 707.12 482.29H706.12C702.98 482.29 699.8 482.18 696.65 482.2C696.14 482.2 695.65 482.2 695.12 482.2C689.72 482.34 684.35 483.2 678.95 483.29H677.22C671.93 483.16 666.52 482.03 662.31 478.83C661.461 478.269 660.772 477.497 660.31 476.59C659.951 475.633 659.831 474.604 659.96 473.59C660.06 471.78 660.41 469.81 661.77 468.59C662.625 467.935 663.605 467.461 664.65 467.2C666.48 466.61 668.32 466.04 670.15 465.47C671.98 464.9 674.07 464.29 676.04 463.71L676.42 463.59L677.52 463.26L678.23 463.02C679.091 462.744 679.916 462.368 680.69 461.9C681.71 461.255 682.574 460.39 683.22 459.37C683.33 459.19 683.45 459 683.55 458.81C683.65 458.62 683.55 458.5 683.48 458.34C683.31 457.09 683.18 455.81 682.96 454.59C680.146 453.938 677.579 452.486 675.57 450.41C673.844 448.699 672.39 446.733 671.26 444.58C668.77 439.9 667.49 434.67 665.63 429.7C662.78 422.14 658.63 415.16 654.45 408.24C650.63 401.86 646.79 395.46 642.45 389.43C639.56 385.43 636.45 381.62 633.59 377.61C625.5 366.421 619.695 353.746 616.51 340.31C616.023 337.732 615.33 335.198 614.44 332.73C612.72 328.53 609.57 325.11 607.13 321.27C604.507 317.131 602.71 312.523 601.84 307.7C601.34 304.96 600.5 302 597.77 301.7L597.48 302.27C591.82 313.27 586.01 324.47 577.48 333.45C576.116 334.77 574.868 336.205 573.75 337.74C572.854 339.228 572.052 340.771 571.35 342.36C570 345.213 568.208 347.836 566.04 350.13C565.395 350.782 564.692 351.375 563.94 351.9C562.941 352.626 561.83 353.184 560.65 353.55V353.55C560.185 353.692 559.711 353.799 559.23 353.87C559.23 353.99 559.28 354.1 559.29 354.22C559.3 354.34 559.35 354.48 559.37 354.61C560.841 362.611 560.211 370.856 557.54 378.54C557.47 378.78 557.39 379.01 557.3 379.25C556.887 380.37 556.437 381.47 555.95 382.55C554.73 385.2 553.28 387.74 552.14 390.43C551.95 390.89 551.76 391.35 551.59 391.81C547.59 402.52 548.59 414.48 548.07 425.99C548.024 428.507 547.726 431.013 547.18 433.47C546.5 436.24 545.41 439.1 544.81 441.96C544.263 444.104 544.218 446.346 544.68 448.51L544.44 448.6C543.37 449 542.28 449.36 541.19 449.7V449.85C541.58 452.09 541.96 454.33 542.35 456.56C542.68 458.48 543.07 460.56 544.41 461.92C544.775 462.22 545.11 462.555 545.41 462.92C546.2 464.16 545.5 465.8 545.65 467.27C545.87 469.35 547.79 471.12 547.49 473.19C547.355 473.809 547.071 474.385 546.664 474.869C546.256 475.354 545.736 475.732 545.15 475.97C544.658 476.193 544.141 476.358 543.61 476.46L543.28 476.53C542.68 476.64 542.08 476.7 541.48 476.76C534.03 477.5 526.48 478.24 519.1 476.98C517.64 476.73 516.19 476.4 514.71 476.28C512.84 476.197 510.967 476.274 509.11 476.51C495.419 477.806 481.651 478.074 467.92 477.31C464.35 477.11 460.25 476.53 458.36 473.48C456.79 470.95 457.36 467.68 458.15 464.79C458.376 463.727 458.786 462.712 459.36 461.79C459.425 461.69 459.498 461.596 459.58 461.51C461.42 459.22 464.88 459.08 467.86 459.17L477.6 459.46C478.559 459.538 479.524 459.464 480.46 459.24C482.04 458.78 483.24 457.52 484.72 456.81C486.58 455.92 488.92 455.81 490.26 454.29L490.43 454.07C490.667 453.748 490.887 453.414 491.09 453.07C491.09 453 491.18 452.93 491.23 452.86C491.267 452.798 491.307 452.738 491.35 452.68C492.58 451.06 494.73 450.52 496.48 449.49C496.745 449.336 496.996 449.158 497.23 448.96L497.43 448.78C495.546 447.436 493.903 445.783 492.57 443.89C492.056 443.337 491.676 442.674 491.46 441.95C491.338 441.407 491.379 440.84 491.58 440.32C491.623 440.193 491.677 440.069 491.74 439.95L491.79 439.85C492.47 438.51 493.87 437.3 494.64 435.93C494.669 435.887 494.693 435.84 494.71 435.79C495.77 433.79 495.98 430.69 494.41 429.08C495.21 415.91 498.83 403.08 499.63 389.87C499.95 384.64 499.82 379.39 500.06 374.14C500.3 368.89 500.86 363.8 501.45 358.65C502.77 346.88 505.97 335.35 505.52 323.53C505.482 322.428 505.528 321.325 505.66 320.23C505.655 320.15 505.655 320.07 505.66 319.99C505.98 317.568 506.736 315.224 507.89 313.07C509.34 310.636 510.982 308.322 512.8 306.15C518.95 298.15 526.34 290.15 528.53 280.31C529.66 275.23 532.16 270.58 534.65 266.01C536.12 263.29 537.65 260.5 540 258.5C541.273 257.619 542.455 256.614 543.53 255.5C545.17 253.38 545.23 250.45 546.2 247.93C546.7 246.62 547.47 245.42 547.85 244.07C547.85 243.93 547.92 243.8 547.95 243.66C548.172 242.298 548.289 240.92 548.3 239.54C548.3 239.14 548.36 238.75 548.41 238.36C548.994 234.407 550.143 230.557 551.82 226.93C552.03 226.47 552.23 226 552.43 225.54C547.816 222.848 543.746 219.318 540.43 215.13C539.306 213.775 538.33 212.303 537.52 210.74C535.46 206.65 534.99 201.99 534.02 197.51C531.7 186.83 526.39 176.77 525.65 165.85C525.43 162.52 525.65 159.08 524.49 155.93C524.171 155.079 523.793 154.25 523.36 153.45C523.18 153.11 523.01 152.77 522.83 152.45L522.63 152.07L522.12 151.07L521.3 151.71C500.842 167.729 479.363 182.4 457 195.63L455.08 196.77C454.08 197.252 453.21 197.965 452.54 198.85C452.46 198.98 452.39 199.11 452.32 199.24C451.86 200.19 451.74 201.24 451.32 202.24C450.42 204.53 448.11 205.99 445.75 206.67C441.48 207.768 436.952 207.185 433.1 205.04C432.61 204.79 432.1 204.53 431.66 204.24C430.49 204.888 429.257 205.414 427.98 205.81C423.98 206.97 419.79 206.92 415.65 206.91C411.51 206.9 407.28 206.91 403.36 208.27C400.74 209.16 398.2 210.63 395.48 210.77C395.167 210.79 394.853 210.79 394.54 210.77C392.989 210.592 391.481 210.149 390.08 209.46L389.26 209.09C388.835 208.889 388.421 208.665 388.02 208.42C387.582 208.15 387.176 207.831 386.81 207.47C386.281 206.939 385.895 206.281 385.69 205.56C385.555 205.039 385.555 204.492 385.69 203.97C385.729 203.736 385.849 203.523 386.03 203.37C386.208 203.265 386.413 203.213 386.62 203.22C387.767 203.208 388.912 203.305 390.04 203.51C390.703 203.601 391.371 203.638 392.04 203.62H392.4C392.99 203.557 393.56 203.373 394.076 203.081C394.592 202.788 395.043 202.393 395.4 201.92C395.51 201.774 395.597 201.612 395.66 201.44V201.44C395.781 201.159 395.842 200.856 395.84 200.55C395.846 200.474 395.846 200.397 395.84 200.32C395.42 200.13 395 199.94 394.6 199.71C394.39 199.6 394.19 199.48 393.99 199.36L393.87 199.28C393.511 199.036 393.176 198.758 392.87 198.45C392.676 198.257 392.504 198.043 392.36 197.81C392.094 197.448 391.895 197.042 391.77 196.61V196.61C390.946 196.438 390.093 196.462 389.28 196.68C388.19 196.98 387.09 197.62 386.01 197.84C385.465 197.977 384.892 197.953 384.36 197.77C382.8 197.21 382.25 195.31 381.92 193.68C381.86 193.37 381.79 193.05 381.74 192.73C381.625 192.115 381.625 191.485 381.74 190.87C382.224 189.473 383.146 188.27 384.37 187.44L387.65 184.69L387.89 184.49C387.89 184.22 387.78 183.95 387.74 183.68C387.625 183.062 387.625 182.428 387.74 181.81C388.223 180.416 389.146 179.216 390.37 178.39L397.63 172.28C398.99 171.14 400.47 169.94 402.24 169.82C404.87 169.64 406.97 171.82 408.94 173.57C411.42 175.77 414.43 177.57 417.74 177.79C419.316 177.862 420.892 177.645 422.39 177.15L423.24 176.87C423.06 176.5 422.88 176.13 422.71 175.76C422.42 175.15 422.13 174.53 421.85 173.91C426.11 173.64 429.98 171.3 433.21 168.5C436.44 165.7 439.21 162.39 442.47 159.64C445.99 156.64 450.03 154.41 453.6 151.52C461.9 144.79 467.41 134.9 476.29 128.97C479.37 126.9 482.93 125.25 485.03 122.17C485.68 121.17 486.17 120.17 486.84 119.17C488.97 116.17 492.62 114.79 495.63 112.71C498.64 110.63 501.26 107.58 503.71 104.65C505.45 102.56 507.2 100.47 508.86 98.3201C510.39 95.4701 511.68 92.4901 513.28 89.6801C514.638 87.3062 516.222 85.0691 518.01 83.0001C518.42 82.2001 518.84 81.4001 519.29 80.6201C519.74 79.8401 520.07 79.3101 520.49 78.6201C520.78 78.1701 521.08 77.7401 521.39 77.3001C520.48 75.6901 519.61 74.3001 519.2 73.6901L519 73.4201C518.118 72.4805 517.176 71.5986 516.18 70.7801C515.135 70.6218 514.099 70.4014 513.08 70.1201C506.908 68.4287 501.464 64.7547 497.586 59.6643C493.708 54.5738 491.612 48.3494 491.62 41.9501C491.615 41.9204 491.615 41.8899 491.62 41.8601C491.624 37.2773 492.713 32.7605 494.8 28.6801C495.22 27.8601 495.67 27.0701 496.16 26.3001C495.703 26.1558 495.258 25.9753 494.83 25.7601C494.1 25.4005 493.464 24.8769 492.97 24.2301C492.562 23.654 492.299 22.9889 492.2 22.2901C492.031 20.642 492.278 18.9777 492.92 17.4501C493.193 16.7148 493.503 15.9938 493.85 15.2901C493.877 15.249 493.901 15.2055 493.92 15.1601C498.39 6.16013 507.92 0.630119 517.44 0.240119C527.71 -0.169881 537.71 4.65015 545.81 11.5501C548.227 13.5333 550.39 15.8071 552.25 18.3201C556.48 24.2001 558.39 31.7201 558.95 39.1701C559.16 41.4744 559.12 43.7946 558.83 46.0901C558.724 46.9082 558.557 47.7171 558.33 48.5101C558.2 48.9801 558.03 49.4501 557.85 49.9201C557.67 50.3901 557.56 50.6001 557.4 50.9201V50.9701C557.25 51.2901 557.08 51.5901 556.91 51.8901L556.82 52.0201L556.69 52.2301C556.77 52.4201 556.86 52.6201 556.95 52.8101C557.04 53.0001 557.12 53.1801 557.22 53.3601H557.34C559.34 53.5201 561.19 53.8001 563.23 53.9601C564.19 54.0057 565.142 54.1532 566.07 54.4001C568.07 55.0001 569.58 56.4601 571.26 57.6401C575.42 60.5801 580.54 61.9501 584.63 64.9901C590.63 69.4701 593.63 76.8701 597.27 83.5001C602.07 92.3801 609.89 99.9401 613.34 109.44C614.9 113.753 616.467 118.06 618.04 122.36C621.11 130.79 624.18 139.26 628.35 147.21C634.15 158.27 642 168.21 646.65 179.83C647.112 180.995 647.978 181.953 649.09 182.53C655.426 191.478 661.06 200.902 665.94 210.72C668.51 215.91 670.94 221.3 671.69 227.05C672.275 232.17 671.851 237.354 670.44 242.31C669.643 245.254 668.664 248.147 667.51 250.97C667.06 251.959 666.725 252.995 666.51 254.06C666.51 254.17 666.51 254.28 666.51 254.39C666.31 256.31 667.04 258.21 667.24 260.13C667.407 261.676 667.233 263.239 666.73 264.71C666.65 264.94 666.56 265.17 666.47 265.4C665.85 266.569 665.325 267.787 664.9 269.04C664.864 269.192 664.837 269.345 664.82 269.5C664.49 271.67 665.35 273.86 665.82 276.03C667.58 283.87 667.26 292.03 666.82 300.03C666.59 304.03 669.82 307.24 672.52 310.19C677.52 315.72 681.43 322.19 685.2 328.63C687.257 331.899 688.989 335.363 690.37 338.97C691.8 343.09 692.37 347.45 693.16 351.72C695.71 364.92 704.04 376.58 706.3 389.81C707.348 395.869 710.02 401.53 714.03 406.19C715.238 407.438 716.352 408.775 717.36 410.19C718.057 411.317 718.611 412.527 719.01 413.79C719.993 416.731 720.457 419.82 720.38 422.92C720.222 424.404 720.306 425.904 720.63 427.36C721.57 430.43 724.93 432.12 726.32 435.01C727.71 437.9 726.75 441.6 727.32 444.88C727.767 447.525 729.196 449.903 731.32 451.54C730.52 452.24 729.68 452.88 728.82 453.54C729.616 454.158 730.314 454.893 730.89 455.72C731.284 456.274 731.619 456.867 731.89 457.49C733.21 460.56 733.25 464.21 734.33 467.49C734.79 468.85 735.44 470.29 735.04 471.67C734.869 472.065 734.754 472.483 734.7 472.91C734.7 473.81 735.64 474.4 736 475.22C736.131 475.632 736.152 476.072 736.061 476.494C735.969 476.917 735.769 477.309 735.48 477.63V477.63Z" fill="url(#paint0_linear)"/>
<path d="M523.84 87.63C529.96 85.98 535.41 82.53 540.75 79.12L559.36 67.27C554.31 66.87 549.95 63.27 547.36 58.91C544.77 54.55 543.7 49.48 542.82 44.5C534.82 47.62 527.89 52.91 521.43 58.5C518.87 60.71 513.43 64.05 512.64 67.5C511.85 70.95 516.89 73.75 518.84 76.06C519.51 76.83 525.82 87.08 523.84 87.63Z" fill="#FBBEBE"/>
<path opacity="0.1" d="M523.84 87.63C529.96 85.98 535.41 82.53 540.75 79.12L559.36 67.27C554.31 66.87 549.95 63.27 547.36 58.91C544.77 54.55 543.7 49.48 542.82 44.5C534.82 47.62 527.89 52.91 521.43 58.5C518.87 60.71 513.43 64.05 512.64 67.5C511.85 70.95 516.89 73.75 518.84 76.06C519.51 76.83 525.82 87.08 523.84 87.63Z" fill="black"/>
<path d="M422.15 185.51C418.87 187.19 415.38 188.91 411.71 188.67C408.41 188.46 405.4 186.67 402.92 184.48C400.92 182.74 398.86 180.57 396.23 180.75C394.47 180.87 392.99 182.06 391.63 183.19L384.38 189.26C383.16 190.08 382.237 191.273 381.75 192.66C381.607 193.601 381.665 194.563 381.92 195.48C382.25 197.1 382.8 198.99 384.36 199.54C385.92 200.09 387.62 198.91 389.27 198.46C390.278 198.202 391.337 198.221 392.335 198.515C393.333 198.809 394.233 199.367 394.94 200.13C395.529 200.709 395.885 201.485 395.94 202.31C395.94 204.12 393.94 205.31 392.1 205.4C390.26 205.49 388.5 204.89 386.68 205C386.57 204.986 386.459 204.994 386.352 205.024C386.245 205.054 386.146 205.105 386.059 205.174C385.972 205.243 385.9 205.329 385.847 205.426C385.794 205.523 385.761 205.63 385.75 205.74C385.637 206.372 385.685 207.022 385.889 207.63C386.094 208.238 386.448 208.785 386.92 209.22C387.87 210.087 388.976 210.766 390.18 211.22C391.579 211.912 393.089 212.352 394.64 212.52C397.71 212.72 400.53 211.02 403.44 210.03C407.36 208.71 411.58 208.67 415.72 208.68C419.86 208.69 424.06 208.75 428.03 207.59C432 206.43 435.77 203.86 437.32 200.03C437.503 199.673 437.563 199.265 437.49 198.87C437.335 198.449 437.038 198.095 436.65 197.87C431.07 193.74 428.81 188.72 422.53 185.75L422.15 185.51Z" fill="#FBBEBE"/>
<path opacity="0.1" d="M422.15 185.51C418.87 187.19 415.38 188.91 411.71 188.67C408.41 188.46 405.4 186.67 402.92 184.48C400.92 182.74 398.86 180.57 396.23 180.75C394.47 180.87 392.99 182.06 391.63 183.19L384.38 189.26C383.16 190.08 382.237 191.273 381.75 192.66C381.607 193.601 381.665 194.563 381.92 195.48C382.25 197.1 382.8 198.99 384.36 199.54C385.92 200.09 387.62 198.91 389.27 198.46C390.278 198.202 391.337 198.221 392.335 198.515C393.333 198.809 394.233 199.367 394.94 200.13C395.529 200.709 395.885 201.485 395.94 202.31C395.94 204.12 393.94 205.31 392.1 205.4C390.26 205.49 388.5 204.89 386.68 205C386.57 204.986 386.459 204.994 386.352 205.024C386.245 205.054 386.146 205.105 386.059 205.174C385.972 205.243 385.9 205.329 385.847 205.426C385.794 205.523 385.761 205.63 385.75 205.74C385.637 206.372 385.685 207.022 385.889 207.63C386.094 208.238 386.448 208.785 386.92 209.22C387.87 210.087 388.976 210.766 390.18 211.22C391.579 211.912 393.089 212.352 394.64 212.52C397.71 212.72 400.53 211.02 403.44 210.03C407.36 208.71 411.58 208.67 415.72 208.68C419.86 208.69 424.06 208.75 428.03 207.59C432 206.43 435.77 203.86 437.32 200.03C437.503 199.673 437.563 199.265 437.49 198.87C437.335 198.449 437.038 198.095 436.65 197.87C431.07 193.74 428.81 188.72 422.53 185.75L422.15 185.51Z" fill="black"/>
<path d="M539.25 78.8601C537.698 77.8587 535.937 77.227 534.103 77.0138C532.269 76.8005 530.41 77.0114 528.67 77.6301C525.186 78.885 522.06 80.9682 519.56 83.7001C517.064 86.2451 514.903 89.0981 513.13 92.1901C511.43 95.1901 510.13 98.3301 508.43 101.32C505.43 106.67 501.51 111.39 497.57 116.07C495.12 118.98 492.64 121.93 489.5 124.07C486.36 126.21 482.85 127.52 480.72 130.49C480.05 131.43 479.57 132.49 478.91 133.44C476.82 136.5 473.27 138.14 470.18 140.19C461.32 146.09 455.81 155.91 447.53 162.6C443.96 165.48 439.93 167.74 436.42 170.68C433.15 173.41 430.42 176.68 427.16 179.48C423.9 182.28 420.07 184.59 415.82 184.85C418.66 191.18 422.05 197.39 426.92 202.32C431.79 207.25 439.09 210.4 445.74 208.47C448.1 207.79 450.41 206.35 451.31 204.07C451.593 202.898 451.988 201.756 452.49 200.66C453.158 199.78 454.025 199.071 455.02 198.59C481.715 183.008 507.161 165.378 531.13 145.86C537.56 140.62 543.94 135.93 550.54 130.86C552.906 129.182 555.095 127.265 557.07 125.14C559.823 121.853 561.542 117.826 562.012 113.564C562.481 109.303 561.681 104.998 559.71 101.19C557.94 98.2772 555.912 95.5294 553.65 92.9801C549.535 87.6225 544.687 82.8694 539.25 78.8601V78.8601Z" fill="#FF6531"/>
<path opacity="0.1" d="M539.25 78.8601C537.698 77.8587 535.937 77.227 534.103 77.0138C532.269 76.8005 530.41 77.0114 528.67 77.6301C525.186 78.885 522.06 80.9682 519.56 83.7001C517.064 86.2451 514.903 89.0981 513.13 92.1901C511.43 95.1901 510.13 98.3301 508.43 101.32C505.43 106.67 501.51 111.39 497.57 116.07C495.12 118.98 492.64 121.93 489.5 124.07C486.36 126.21 482.85 127.52 480.72 130.49C480.05 131.43 479.57 132.49 478.91 133.44C476.82 136.5 473.27 138.14 470.18 140.19C461.32 146.09 455.81 155.91 447.53 162.6C443.96 165.48 439.93 167.74 436.42 170.68C433.15 173.41 430.42 176.68 427.16 179.48C423.9 182.28 420.07 184.59 415.82 184.85C418.66 191.18 422.05 197.39 426.92 202.32C431.79 207.25 439.09 210.4 445.74 208.47C448.1 207.79 450.41 206.35 451.31 204.07C451.593 202.898 451.988 201.756 452.49 200.66C453.158 199.78 454.025 199.071 455.02 198.59C481.715 183.008 507.161 165.378 531.13 145.86C537.56 140.62 543.94 135.93 550.54 130.86C552.906 129.182 555.095 127.265 557.07 125.14C559.823 121.853 561.542 117.826 562.012 113.564C562.481 109.303 561.681 104.998 559.71 101.19C557.94 98.2772 555.912 95.5294 553.65 92.9801C549.535 87.6225 544.687 82.8694 539.25 78.8601V78.8601Z" fill="black"/>
<path d="M496.28 449.83C494.53 450.83 492.38 451.39 491.15 453.01C490.75 453.53 490.48 454.14 490.05 454.64C488.72 456.2 486.36 456.27 484.51 457.16C483.03 457.86 481.83 459.16 480.26 459.57C479.321 459.793 478.352 459.867 477.39 459.79L467.67 459.5C464.59 459.41 460.98 459.57 459.19 462.08C458.608 463 458.195 464.015 457.97 465.08C457.22 467.95 456.61 471.2 458.18 473.72C460.06 476.72 464.18 477.33 467.73 477.53C481.444 478.289 495.196 478.021 508.87 476.73C510.72 476.494 512.587 476.417 514.45 476.5C515.93 476.62 517.38 476.95 518.84 477.2C526.21 478.45 533.75 477.72 541.19 476.98C542.447 476.919 543.687 476.656 544.86 476.2C545.444 475.962 545.961 475.585 546.367 475.103C546.773 474.62 547.055 474.046 547.19 473.43C547.5 471.37 545.57 469.62 545.36 467.55C545.21 466.09 545.91 464.46 545.11 463.22C544.811 462.854 544.476 462.52 544.11 462.22C542.77 460.83 542.38 458.8 542.05 456.9L540.3 446.63C540.251 445.906 539.954 445.221 539.46 444.69C539.092 444.425 538.668 444.25 538.22 444.18C530.6 442.46 522.79 444.03 515.22 444.99C511.324 445.561 507.383 445.759 503.45 445.58C501.75 445.47 501.09 445.27 499.82 446.38C498.55 447.49 497.87 448.9 496.28 449.83Z" fill="#3F3D56"/>
<path d="M680.29 462.19C678.953 462.938 677.519 463.499 676.03 463.86C672.103 465.007 668.183 466.203 664.27 467.45C663.229 467.708 662.252 468.178 661.4 468.83C660.04 470.03 659.69 471.99 659.59 473.83C659.46 474.844 659.581 475.873 659.94 476.83C660.409 477.727 661.097 478.49 661.94 479.05C666.42 482.44 672.27 483.49 677.89 483.49C683.51 483.49 689.09 482.54 694.71 482.39C701.5 482.21 708.47 483.17 715 481.27C716.246 480.809 717.541 480.494 718.86 480.33C719.736 480.317 720.613 480.373 721.48 480.5C724.982 480.846 728.518 480.524 731.9 479.55C732.918 479.325 733.865 478.854 734.66 478.18C735.053 477.839 735.334 477.388 735.467 476.885C735.599 476.381 735.575 475.85 735.4 475.36C735.04 474.55 734.12 473.96 734.11 473.07C734.157 472.643 734.269 472.225 734.44 471.83C734.85 470.46 734.19 469.03 733.73 467.68C732.44 463.82 732.65 459.38 730.34 456.03C728.03 452.68 723.79 451.3 719.76 450.77C716.484 450.307 713.154 450.402 709.91 451.05C706.26 451.83 702.85 453.46 699.27 454.5C695.116 455.695 690.775 456.105 686.47 455.71C683.61 455.47 684.59 455.92 683.62 458.32C682.932 459.92 681.77 461.271 680.29 462.19V462.19Z" fill="#3F3D56"/>
<path d="M520.5 73.76C536.516 73.76 549.5 60.7763 549.5 44.76C549.5 28.7438 536.516 15.76 520.5 15.76C504.484 15.76 491.5 28.7438 491.5 44.76C491.5 60.7763 504.484 73.76 520.5 73.76Z" fill="#FBBEBE"/>
<path d="M730.74 451.82C721.74 459.55 709.59 462.93 697.74 463.05C692.74 463.1 687.55 462.56 683.29 459.97C682.99 458.33 682.87 456.56 682.57 454.92C677.4 453.84 673.39 449.63 670.89 444.97C668.39 440.31 667.12 435.13 665.26 430.19C662.42 422.67 658.26 415.74 654.1 408.86C650.28 402.52 646.45 396.16 642.1 390.17C639.22 386.17 636.1 382.41 633.25 378.42C625.176 367.313 619.381 354.718 616.2 341.36C615.714 338.798 615.021 336.28 614.13 333.83C612.41 329.65 609.26 326.25 606.83 322.44C604.209 318.329 602.413 313.747 601.54 308.95C601.05 306.23 600.21 303.29 597.48 303.01C591.74 314.16 585.89 325.49 577.21 334.56C575.846 335.87 574.598 337.295 573.48 338.82C572.584 340.301 571.782 341.838 571.08 343.42C569.734 346.258 567.945 348.864 565.78 351.14C563.966 353.081 561.574 354.385 558.96 354.86C560.888 364.469 559.74 374.441 555.68 383.36C554.47 386 553.02 388.52 551.88 391.19C547.22 402.19 548.3 414.6 547.81 426.53C547.767 429.03 547.473 431.519 546.93 433.96C545.72 438.84 543.22 444.03 544.43 448.91C531.89 453.7 517.96 453.4 504.68 451.38C502.083 451.143 499.561 450.377 497.27 449.13C495.387 447.797 493.743 446.153 492.41 444.27C491.896 443.721 491.516 443.061 491.3 442.34C490.78 440.06 493.3 438.34 494.47 436.34C495.64 434.34 495.85 431.17 494.24 429.53C495.04 416.44 498.66 403.66 499.46 390.53C499.78 385.33 499.65 380.11 499.89 374.9C500.13 369.69 500.69 364.62 501.27 359.5C502.59 347.81 505.79 336.35 505.34 324.6C505.203 320.984 506.035 317.397 507.75 314.21C509.196 311.789 510.834 309.488 512.65 307.33C518.79 299.4 526.17 291.45 528.36 281.66C529.49 276.61 531.99 271.99 534.47 267.45C535.94 264.74 537.47 261.97 539.81 259.98C541.083 259.099 542.266 258.094 543.34 256.98C544.98 254.87 545.04 251.98 546.01 249.46C546.51 248.16 547.28 246.96 547.65 245.62C547.955 244.14 548.106 242.632 548.1 241.12C548.42 236.28 550.28 231.6 552.24 227.17C547.63 224.501 543.561 220.995 540.24 216.83C539.125 215.478 538.153 214.013 537.34 212.46C535.28 208.4 534.81 203.77 533.84 199.32C531.53 188.7 526.22 178.71 525.48 167.86C525.26 164.55 525.48 161.13 524.33 158C523.799 156.675 523.178 155.389 522.47 154.15C521.773 152.933 521.242 151.628 520.89 150.27C520.25 147.32 521.13 144.27 520.89 141.27C520.65 138.62 519.52 136.14 518.96 133.55C518.388 130.18 518.291 126.747 518.67 123.35C518.92 119.35 519.79 115.22 519.45 111.27C518.899 104.734 519.732 98.155 521.894 91.9623C524.056 85.7696 527.5 80.1024 532 75.3301L532.23 75.1001C534.14 73.1001 536.23 71.3301 537.95 69.2101C540.29 66.3701 541.95 63.0301 544.42 60.2701C545.5 59.0401 546.72 57.9401 547.79 56.7001C548.771 55.3995 549.858 54.182 551.04 53.0601C551.638 52.505 552.362 52.1046 553.15 51.8937C553.938 51.6828 554.765 51.6678 555.56 51.8501C555.76 53.3414 556.228 54.7845 556.94 56.1101C559.02 56.2701 560.87 56.5601 562.94 56.7201C563.9 56.7656 564.852 56.9131 565.78 57.1601C567.73 57.7501 569.29 59.1601 570.96 60.3701C575.12 63.3001 580.23 64.6601 584.32 67.6801C590.32 72.1301 593.32 79.4801 596.94 86.0701C601.73 94.9001 609.54 102.41 612.94 111.85L617.63 124.69C620.7 133.07 623.77 141.48 627.93 149.38C633.72 160.38 641.56 170.29 646.21 181.8C646.675 182.955 647.536 183.905 648.64 184.48C654.972 193.36 660.599 202.722 665.47 212.48C668.04 217.64 670.47 223 671.21 228.71C672.3 236.78 670.1 244.94 667.04 252.48C666.545 253.56 666.209 254.705 666.04 255.88C665.84 257.79 666.57 259.67 666.77 261.58C666.963 263.364 666.698 265.167 666 266.82C665.378 267.982 664.853 269.192 664.43 270.44C663.89 272.74 664.85 275.08 665.37 277.38C667.13 285.17 666.81 293.24 666.37 301.22C666.14 305.22 669.37 308.39 672.06 311.32C677.06 316.81 680.96 323.23 684.73 329.64C686.78 332.891 688.508 336.334 689.89 339.92C691.32 344.01 691.89 348.34 692.68 352.59C695.22 365.7 703.54 377.29 705.8 390.44C706.846 396.464 709.515 402.089 713.52 406.71C714.727 407.96 715.84 409.297 716.85 410.71C717.541 411.832 718.092 413.034 718.49 414.29C719.473 417.21 719.937 420.28 719.86 423.36C719.702 424.834 719.786 426.324 720.11 427.77C721.05 430.82 724.41 432.5 725.79 435.37C727.17 438.24 726.22 441.92 726.79 445.18C727.221 447.813 728.632 450.185 730.74 451.82V451.82Z" fill="#FF6531"/>
<path d="M428.15 176.51C424.87 178.19 421.38 179.91 417.71 179.67C414.41 179.46 411.4 177.67 408.92 175.48C406.92 173.74 404.86 171.57 402.23 171.75C400.47 171.87 398.99 173.06 397.63 174.19L390.38 180.26C389.16 181.08 388.237 182.273 387.75 183.66C387.607 184.601 387.665 185.563 387.92 186.48C388.25 188.1 388.8 189.99 390.36 190.54C391.92 191.09 393.62 189.91 395.27 189.46C396.278 189.202 397.337 189.221 398.335 189.515C399.333 189.809 400.233 190.367 400.94 191.13C401.529 191.709 401.885 192.485 401.94 193.31C401.94 195.12 399.94 196.31 398.1 196.4C396.26 196.49 394.5 195.89 392.68 196C392.57 195.986 392.459 195.994 392.352 196.024C392.245 196.054 392.146 196.105 392.059 196.174C391.972 196.243 391.9 196.329 391.847 196.426C391.794 196.523 391.761 196.63 391.75 196.74C391.637 197.372 391.685 198.022 391.889 198.63C392.094 199.238 392.448 199.785 392.92 200.22C393.87 201.087 394.976 201.766 396.18 202.22C397.579 202.912 399.089 203.352 400.64 203.52C403.71 203.72 406.53 202.02 409.44 201.03C413.36 199.71 417.58 199.67 421.72 199.68C425.86 199.69 430.06 199.75 434.03 198.59C438 197.43 441.77 194.86 443.32 191.03C443.503 190.673 443.563 190.265 443.49 189.87C443.335 189.449 443.038 189.095 442.65 188.87C437.07 184.74 434.81 179.72 428.53 176.75L428.15 176.51Z" fill="#FBBEBE"/>
<path d="M506.39 26.9401C504.66 27.2201 503.19 28.3901 501.55 29.0401C500.449 29.4677 499.27 29.6568 498.091 29.5947C496.912 29.5326 495.76 29.2209 494.71 28.6801C493.978 28.3243 493.338 27.8041 492.84 27.1601C491.5 25.3001 491.97 22.6001 492.79 20.4201C496.67 10.1101 507.03 3.7301 517.29 3.3201C527.55 2.9101 537.53 7.70011 545.62 14.5501C548.026 16.5267 550.185 18.7863 552.05 21.2801C556.27 27.1301 558.18 34.6001 558.74 42.0001C559.075 45.1054 558.869 48.2453 558.13 51.2801C557.775 52.7548 557.126 54.1428 556.222 55.361C555.319 56.5793 554.178 57.6027 552.87 58.3701C550.01 59.8301 546.58 59.3701 543.69 57.9701C540.8 56.5701 538.32 54.3601 535.84 52.2501C534.716 51.1668 533.387 50.32 531.93 49.7601C531.204 49.5013 530.418 49.458 529.667 49.6354C528.917 49.8128 528.234 50.2034 527.7 50.7601C526.36 52.3701 526.7 55.0101 525.48 56.7601C524.26 58.5101 521.72 58.7601 519.58 58.7601C517.44 58.7601 515.27 58.5801 513.99 56.8801C512.82 55.3401 512.99 53.0901 513.43 51.1501C513.87 49.2101 514.62 47.2901 514.43 45.3001C514.02 41.3001 510.52 38.8401 509.43 35.1601C508.72 32.7501 510.28 31.7301 510.12 29.5501C510 27.6301 507.94 26.6901 506.39 26.9401Z" fill="#3F3D56"/>
<path opacity="0.1" d="M597.5 302.76V303.01C591.76 314.16 585.91 325.49 577.23 334.56C575.866 335.87 574.618 337.295 573.5 338.82C572.604 340.301 571.802 341.838 571.1 343.42C569.754 346.258 567.965 348.864 565.8 351.14L558.56 354.76L581.56 234.76L597.5 302.76Z" fill="black"/>
<path opacity="0.1" d="M564.07 121.14C562.095 123.265 559.906 125.182 557.54 126.86C550.94 131.86 544.54 136.58 538.13 141.86C532.963 146.067 527.723 150.187 522.41 154.22C521.713 153.003 521.182 151.698 520.83 150.34C520.19 147.39 521.07 144.34 520.83 141.34C520.59 138.69 519.46 136.21 518.9 133.62C518.328 130.25 518.231 126.817 518.61 123.42C518.86 119.42 519.73 115.29 519.39 111.34C518.837 104.788 519.674 98.1932 521.847 91.9875C524.02 85.7818 527.48 80.1053 532 75.33L532.23 75.1C533.306 74.4742 534.446 73.9647 535.63 73.58C537.374 72.9686 539.235 72.766 541.069 72.9879C542.903 73.2099 544.662 73.8504 546.21 74.86C551.647 78.8693 556.495 83.6224 560.61 88.98C562.872 91.5293 564.9 94.2771 566.67 97.19C568.646 100.994 569.453 105.297 568.991 109.558C568.528 113.819 566.816 117.849 564.07 121.14V121.14Z" fill="black"/>
<path d="M545.25 69.8601C543.698 68.8587 541.937 68.227 540.103 68.0138C538.269 67.8005 536.41 68.0114 534.67 68.6301C531.186 69.885 528.06 71.9682 525.56 74.7001C523.064 77.2451 520.903 80.0981 519.13 83.1901C517.43 86.1901 516.13 89.3301 514.43 92.3201C511.43 97.6701 507.51 102.39 503.57 107.07C501.12 109.98 498.64 112.93 495.5 115.07C492.36 117.21 488.85 118.52 486.72 121.49C486.05 122.43 485.57 123.49 484.91 124.44C482.82 127.5 479.27 129.14 476.18 131.19C467.32 137.09 461.81 146.91 453.53 153.6C449.96 156.48 445.93 158.74 442.42 161.68C439.15 164.41 436.42 167.68 433.16 170.48C429.9 173.28 426.07 175.59 421.82 175.85C424.66 182.18 428.05 188.39 432.92 193.32C437.79 198.25 445.09 201.4 451.74 199.47C454.1 198.79 456.41 197.35 457.31 195.07C457.593 193.898 457.988 192.756 458.49 191.66C459.158 190.78 460.025 190.071 461.02 189.59C487.715 174.008 513.161 156.378 537.13 136.86C543.56 131.62 549.94 126.93 556.54 121.86C558.906 120.182 561.095 118.265 563.07 116.14C565.823 112.853 567.542 108.826 568.012 104.564C568.481 100.303 567.681 95.9977 565.71 92.1901C563.94 89.2772 561.912 86.5294 559.65 83.9801C555.535 78.6225 550.687 73.8694 545.25 69.8601V69.8601Z" fill="#FF6531"/>
<g opacity="0.1">
<path opacity="0.1" d="M521.58 54.7299C519.58 54.7299 517.27 54.5499 515.99 52.8499C514.83 51.3099 514.99 49.0599 515.43 47.1199C515.87 45.1799 516.62 43.26 516.43 41.27C516.02 37.27 512.52 34.8099 511.43 31.1299C510.72 28.7199 512.28 27.7 512.12 25.52C511.98 23.63 509.93 22.6899 508.38 22.9399C506.65 23.2199 505.18 24.3899 503.54 25.0399C502.439 25.4676 501.261 25.6566 500.081 25.5945C498.902 25.5325 497.75 25.2207 496.7 24.6799C495.968 24.3242 495.328 23.804 494.83 23.1599C493.49 21.2999 493.96 18.6 494.78 16.42C494.78 16.34 494.85 16.2699 494.88 16.1899C494.044 17.528 493.34 18.9448 492.78 20.42C491.96 22.6 491.49 25.2999 492.83 27.1599C493.328 27.804 493.968 28.3242 494.7 28.6799C495.75 29.2207 496.902 29.5325 498.081 29.5945C499.261 29.6566 500.439 29.4676 501.54 29.0399C503.18 28.3899 504.65 27.2199 506.38 26.9399C507.93 26.6899 509.98 27.63 510.12 29.52C510.28 31.7 508.72 32.7199 509.43 35.1299C510.5 38.8099 514 41.31 514.43 45.27C514.63 47.27 513.9 49.1899 513.43 51.1199C512.96 53.0499 512.83 55.3099 513.99 56.8499C515.27 58.5499 517.56 58.7099 519.58 58.7299C521.6 58.7499 524.2 58.6099 525.48 56.7299C526.032 55.7857 526.396 54.743 526.55 53.6599C525.19 54.6299 523.29 54.7499 521.58 54.7299Z" fill="black"/>
<path opacity="0.1" d="M554.87 54.3698C552.01 55.8298 548.58 55.3698 545.69 53.9698C542.8 52.5698 540.32 50.3598 537.84 48.2498C536.716 47.1665 535.387 46.3198 533.93 45.7598C533.204 45.501 532.418 45.4577 531.667 45.6351C530.917 45.8125 530.234 46.2031 529.7 46.7598C529.021 47.7638 528.592 48.916 528.45 50.1198C528.97 49.8134 529.55 49.6219 530.15 49.558C530.75 49.4942 531.357 49.5596 531.93 49.7498C533.387 50.3098 534.716 51.1565 535.84 52.2398C538.32 54.3498 540.84 56.5698 543.69 57.9598C546.54 59.3498 550.01 59.8198 552.87 58.3598C555.399 56.8794 557.243 54.4611 558 51.6298C557.178 52.769 556.108 53.706 554.87 54.3698V54.3698Z" fill="black"/>
</g>
<path d="M306 484.26C322.569 484.26 336 470.829 336 454.26C336 437.691 322.569 424.26 306 424.26C289.431 424.26 276 437.691 276 454.26C276 470.829 289.431 484.26 306 484.26Z" fill="#563D3D"/>
<path d="M306 473.26C316.493 473.26 325 464.753 325 454.26C325 443.767 316.493 435.26 306 435.26C295.507 435.26 287 443.767 287 454.26C287 464.753 295.507 473.26 306 473.26Z" fill="#7D6161"/>
<path d="M283 407.26L302.68 451.76C302.973 452.427 303.451 452.996 304.057 453.401C304.663 453.805 305.372 454.028 306.1 454.043C306.829 454.058 307.546 453.864 308.168 453.484C308.79 453.104 309.29 452.555 309.61 451.9L333 404.26L283 407.26Z" fill="#563D3D"/>
<path d="M119 484.26C135.569 484.26 149 470.829 149 454.26C149 437.691 135.569 424.26 119 424.26C102.431 424.26 89 437.691 89 454.26C89 470.829 102.431 484.26 119 484.26Z" fill="#563D3D"/>
<path d="M119 473.26C129.493 473.26 138 464.753 138 454.26C138 443.767 129.493 435.26 119 435.26C108.507 435.26 100 443.767 100 454.26C100 464.753 108.507 473.26 119 473.26Z" fill="#7D6161"/>
<path d="M96 407.26L115.68 451.76C115.973 452.427 116.451 452.996 117.057 453.401C117.663 453.805 118.372 454.028 119.1 454.043C119.829 454.058 120.546 453.864 121.168 453.484C121.79 453.104 122.29 452.555 122.61 451.9L146 404.26L96 407.26Z" fill="#563D3D"/>
<path d="M403.36 193.01C403.278 192.252 403.007 191.528 402.572 190.902C402.137 190.277 401.552 189.77 400.87 189.43C400.296 189.185 399.679 189.059 399.055 189.058C398.431 189.057 397.813 189.181 397.239 189.424C396.664 189.666 396.144 190.022 395.709 190.47C395.275 190.918 394.935 191.448 394.71 192.03L377.5 234.76L372.5 426.76H380.5L383.5 235.17L402.94 195.91C403.382 195.012 403.529 193.997 403.36 193.01V193.01Z" fill="#563D3D"/>
<path d="M49.5 411.76L76.5 394.76L368 392.26L375.5 411.76H49.5Z" fill="#953A1E"/>
<path d="M49.5 429.76V411.76L380.78 408.56L380.46 420.76H55.5V429.76H49.5Z" fill="#563D3D"/>
<path d="M91.5 494.76C108.069 494.76 121.5 481.329 121.5 464.76C121.5 448.191 108.069 434.76 91.5 434.76C74.9315 434.76 61.5 448.191 61.5 464.76C61.5 481.329 74.9315 494.76 91.5 494.76Z" fill="#563D3D"/>
<path d="M91.5 483.76C101.993 483.76 110.5 475.253 110.5 464.76C110.5 454.267 101.993 445.76 91.5 445.76C81.0066 445.76 72.5 454.267 72.5 464.76C72.5 475.253 81.0066 483.76 91.5 483.76Z" fill="#7D6161"/>
<path d="M68.5 417.76L88.18 462.26C88.473 462.927 88.9507 463.496 89.5568 463.901C90.1628 464.305 90.8718 464.528 91.6003 464.543C92.3287 464.558 93.0462 464.364 93.6681 463.984C94.29 463.604 94.7903 463.055 95.11 462.4L118.5 414.76L68.5 417.76Z" fill="#563D3D"/>
<path d="M324.5 494.76C341.069 494.76 354.5 481.329 354.5 464.76C354.5 448.191 341.069 434.76 324.5 434.76C307.931 434.76 294.5 448.191 294.5 464.76C294.5 481.329 307.931 494.76 324.5 494.76Z" fill="#563D3D"/>
<path d="M324.5 483.76C334.993 483.76 343.5 475.253 343.5 464.76C343.5 454.267 334.993 445.76 324.5 445.76C314.007 445.76 305.5 454.267 305.5 464.76C305.5 475.253 314.007 483.76 324.5 483.76Z" fill="#7D6161"/>
<path d="M301.5 417.76L321.18 462.26C321.473 462.927 321.951 463.496 322.557 463.901C323.163 464.305 323.872 464.528 324.6 464.543C325.329 464.558 326.046 464.364 326.668 463.984C327.29 463.604 327.79 463.055 328.11 462.4L351.5 414.76L301.5 417.76Z" fill="#563D3D"/>
<path d="M212 333.26H87V402.26H212V333.26Z" fill="#BF7946"/>
<path opacity="0.1" d="M169 345.26H131V353.26H169V345.26Z" fill="black"/>
<path opacity="0.1" d="M164.25 346.26H135.75V352.26H164.25V346.26Z" fill="black"/>
<path d="M339 333.26H214V402.26H339V333.26Z" fill="#BF7946"/>
<path opacity="0.1" d="M296 345.26H258V353.26H296V345.26Z" fill="black"/>
<path opacity="0.1" d="M291.25 346.26H262.75V352.26H291.25V346.26Z" fill="black"/>
<path d="M212 262.26H87V331.26H212V262.26Z" fill="#BF7946"/>
<path opacity="0.1" d="M169 274.26H131V282.26H169V274.26Z" fill="black"/>
<path opacity="0.1" d="M164.25 275.26H135.75V281.26H164.25V275.26Z" fill="black"/>
<path d="M339 262.26H214V331.26H339V262.26Z" fill="#BF7946"/>
<path opacity="0.1" d="M296 274.26H258V282.26H296V274.26Z" fill="black"/>
<path opacity="0.1" d="M291.25 275.26H262.75V281.26H291.25V275.26Z" fill="black"/>
<path d="M212 190.26H87V259.26H212V190.26Z" fill="#BF7946"/>
<path opacity="0.1" d="M169 202.26H131V210.26H169V202.26Z" fill="black"/>
<path opacity="0.1" d="M164.25 203.26H135.75V209.26H164.25V203.26Z" fill="black"/>
<path d="M339 190.26H214V259.26H339V190.26Z" fill="#BF7946"/>
<path opacity="0.1" d="M296 202.26H258V210.26H296V202.26Z" fill="black"/>
<path opacity="0.1" d="M291.25 203.26H262.75V209.26H291.25V203.26Z" fill="black"/>
<path d="M339 118.26H214V187.26H339V118.26Z" fill="#BF7946"/>
<path opacity="0.1" d="M296 130.26H258V138.26H296V130.26Z" fill="black"/>
<path opacity="0.1" d="M291.25 131.26H262.75V137.26H291.25V131.26Z" fill="black"/>
<defs>
<linearGradient id="paint0_linear" x1="558.83" y1="483.4" x2="558.83" y2="0.260111" gradientUnits="userSpaceOnUse">
<stop stop-color="#808080" stop-opacity="0.25"/>
<stop offset="0.54" stop-color="#808080" stop-opacity="0.12"/>
<stop offset="1" stop-color="#808080" stop-opacity="0.1"/>
</linearGradient>
</defs>
</svg>
