<svg width="753" height="511" viewBox="0 0 753 511" fill="none" xmlns="http://www.w3.org/2000/svg">
<path d="M569 273H77V469H569V273Z" fill="#FF6531"/>
<path d="M251.485 249.652C257.106 254.018 259.162 255.427 260.359 255.248C318.358 272.138 267.513 291.931 239.333 258.333L251.485 249.652Z" fill="#FFB8B8"/>
<path d="M60.099 428.093V467.747L88.649 466.161L80.719 424.921L60.099 428.093Z" fill="#FFB8B8"/>
<path d="M218.713 428.093V467.747L190.162 466.161L198.093 424.921L218.713 428.093Z" fill="#FFB8B8"/>
<path d="M131.475 223.481L174.301 221.895C273.095 325.466 235.733 301.844 232.988 443.955L180.645 428.093L191.749 329.753C191.754 329.749 194.677 327.8 192.247 327.755C177.051 332.978 165.963 268.318 133.061 275.824C95.6205 274.033 89.5252 329.574 74.374 329.753L85.477 428.093L33.1343 443.955C27.2738 287.789 -1.44868 323.067 91.8216 221.895L131.475 223.481Z" fill="#2F2E41"/>
<path d="M68.0294 455.058C68.0294 455.058 61.6849 442.369 53.7542 448.713C45.8235 455.058 26.7898 474.092 26.7898 474.092C26.7898 474.092 -19.2084 494.711 9.3422 507.401C37.8927 520.09 61.6849 489.953 61.6849 489.953C88.8789 484.282 104.565 480.652 90.1431 450.989C81.9555 454.532 70.3688 458.634 68.0294 455.058Z" fill="#2F2E41"/>
<path d="M210.782 455.058C210.782 455.058 217.127 442.369 225.057 448.713C232.988 455.058 252.022 474.092 252.022 474.092C252.022 474.092 298.02 494.711 269.469 507.401C240.919 520.09 217.127 489.953 217.127 489.953C189.933 484.282 174.247 480.652 188.669 450.989C196.856 454.532 208.443 458.634 210.782 455.058Z" fill="#2F2E41"/>
<path d="M174.301 44.2472C171.942 83.7327 118.053 80.2564 117.2 44.2469C119.559 4.76168 173.448 8.23797 174.301 44.2472Z" fill="#FFB8B8"/>
<path d="M133.061 64.8668C146.937 106.805 114.177 83.9722 160.026 117.21L177.473 82.3144C177.473 82.3144 164.784 77.556 166.37 60.1084L133.061 64.8668Z" fill="#FFB8B8"/>
<path d="M218.713 88.659L171.431 77.8667C172.76 106.376 142.335 100.638 137.027 86.2973L91.8216 112.451C110.795 183.118 105.987 186.034 80.7186 231.412C71.0752 240.218 85.4971 245.265 98.0521 240.446C107.628 234.536 112.491 229.284 122.752 230.62C171.237 240.716 211.6 243.099 217.988 239.154C220.274 235.883 217.922 89.2268 218.713 88.659Z" fill="#575A89"/>
<path d="M206.024 91.8314C207.61 91.8314 215.78 87.9898 215.78 87.9898C239.551 87.5891 255.503 247.486 256.78 252.032L240.919 263.135L215.541 198.103L206.024 91.8314Z" fill="#575A89"/>
<path d="M94.9938 277.41C95.8048 283.396 97.1849 350.62 121.266 319.218C124.426 296.308 113.684 289.469 110.855 274.238L94.9938 277.41Z" fill="#FFB8B8"/>
<path d="M101.338 112.451L96.4785 109.757C83.4492 109.329 87.5555 143.818 82.0431 169.076C77.5397 198.5 78.8219 230.946 84.1054 274.323C84.5675 290.241 113.078 280.213 117.2 278.996C117.2 278.996 107.683 213.964 112.441 202.861C117.2 191.758 101.338 112.451 101.338 112.451Z" fill="#575A89"/>
<path d="M173.053 16.5698C168.648 9.41702 161.754 4.1462 153.696 1.77178L147.778 6.50633L150.079 0.984017C148.144 0.688832 146.185 0.575644 144.229 0.645943L138.904 7.49226L141.108 0.880456C118.259 3.33386 104.741 29.5637 116.603 47.9213C118.433 42.2981 120.653 37.0216 122.483 31.3983C123.921 31.5943 125.379 31.6014 126.819 31.4194L129.045 26.2249L129.667 31.1997C136.567 30.5985 146.802 29.2787 153.343 28.0694L152.707 24.253L156.513 27.4244C158.517 26.963 159.707 26.5447 159.609 26.2249C164.474 34.0681 169.295 39.0777 174.16 46.9208C176.006 35.8578 179.267 26.6618 173.053 16.5698Z" fill="#2F2E41"/>
<path d="M531.779 296.979H393.412V362.615H531.779V296.979Z" fill="white"/>
<path d="M505.614 310.727H419.578V318.597H505.614V310.727Z" fill="#E6E6E6"/>
<path d="M505.614 325.862H419.578V333.732H505.614V325.862Z" fill="#E6E6E6"/>
<path d="M505.614 340.997H419.578V348.867H505.614V340.997Z" fill="#E6E6E6"/>
<path d="M337.913 319.553L342.414 327.348L346.914 335.144L351.415 327.348L355.916 319.553H351.08V296.979H342.749V319.553H337.913Z" fill="white"/>
<path fill-rule="evenodd" clip-rule="evenodd" d="M615.948 436.133C615.948 456.601 599.356 473.193 578.888 473.193C558.42 473.193 541.828 456.601 541.828 436.133C541.828 415.665 558.42 399.073 578.888 399.073C599.356 399.073 615.948 415.665 615.948 436.133ZM598.849 436.424C598.849 445.495 591.495 452.849 582.424 452.849C573.353 452.849 566 445.495 566 436.424C566 427.353 573.353 420 582.424 420C591.495 420 598.849 427.353 598.849 436.424Z" fill="#2F2E41"/>
<path d="M555.515 462.033L636.374 495.724L633.847 503.726L587.311 498.461L508.558 463.507L552.356 468.561L555.515 462.033Z" fill="#3F3D56"/>
<path d="M626.99 494.206L727.554 164.319L752.045 120.828L752.131 120.409C752.21 120.025 754.008 110.934 749.585 104.351C748.47 102.715 747.03 101.326 745.354 100.27C743.679 99.2148 741.804 98.5158 739.846 98.2168C726.33 95.6826 696.092 94.4339 694.812 94.3819L694.571 94.3721L694.331 94.4048C693.505 94.5174 674.181 97.3422 669.812 114.217L648.788 152.481L648.705 152.753L553.528 465.658L558.766 467.252L653.86 154.618L674.955 116.226L675.04 115.873C678.129 103.174 692.897 100.204 694.862 99.8637C697.951 99.9955 726.37 101.26 738.837 103.598C740.075 103.767 741.264 104.19 742.33 104.843C743.396 105.495 744.315 106.361 745.028 107.387C747.754 111.423 747.072 117.365 746.832 118.928L722.492 162.152L722.405 162.437L621.753 492.61L626.99 494.206Z" fill="#3F3D56"/>
<path d="M641.693 184.117L640.72 189.505L713.351 202.623L714.324 197.235L641.693 184.117Z" fill="#3F3D56"/>
<path d="M628.129 228.923L627.034 234.287L699.146 249.005L700.241 243.64L628.129 228.923Z" fill="#3F3D56"/>
<path d="M603.976 309.055L602.47 314.319L672.874 334.464L674.38 329.201L603.976 309.055Z" fill="#3F3D56"/>
<path d="M651.589 464.372L653.585 459.273L585.249 432.515L581.893 396.181L645.675 420.004L666.338 449.902L670.843 446.79L649.201 415.476L575.64 388L580.108 436.382L651.589 464.372Z" fill="#3F3D56"/>
<path fill-rule="evenodd" clip-rule="evenodd" d="M712.12 471.509C712.12 491.976 695.528 508.569 675.06 508.569C654.592 508.569 638 491.976 638 471.509C638 451.041 654.592 434.448 675.06 434.448C695.528 434.448 712.12 451.041 712.12 471.509ZM691.849 472.424C691.849 481.495 684.495 488.849 675.424 488.849C666.353 488.849 659 481.495 659 472.424C659 463.353 666.353 456 675.424 456C684.495 456 691.849 463.353 691.849 472.424Z" fill="#2F2E41"/>
</svg>
